<svg version="1.2" xmlns="http://www.w3.org/2000/svg" viewBox="0 0 140 43" width="140" height="43">
	<title>Logo-svg</title>
	<style>
		tspan { white-space:pre } 
		.t0 { font-size: 24px;fill: #000000;font-weight: 400;font-family: "NimbusSanL-Reg", "NimbusSanL" } 
		.s1 { fill: #ff9900 } 
	</style>
	<text id="MarketBee" style="transform: matrix(1,0,0,1,12.28,27.645)" >
		<tspan x="0" y="0" class="t0">M</tspan><tspan  y="0" class="t0">a</tspan><tspan  y="0" class="t0">r</tspan><tspan  y="0" class="t0">k</tspan><tspan  y="0" class="t0">e</tspan><tspan  y="0" class="t0">t</tspan><tspan  y="0" class="t0">B</tspan><tspan  y="0" class="t0">e</tspan><tspan  y="0" class="t0">e
</tspan>
	</text>
	<path id="Layer" fill-rule="evenodd" class="s1" d="m86.4 37.3c-6.3 3.4-15.5 5.2-23.5 5.2-11.1 0-21.1-3-28.6-8-0.6-0.4-0.1-0.9 0.6-0.6 8.2 3.5 18.3 5.5 28.7 5.5 7 0 14.8-1 21.9-3.2 1.1-0.3 2 0.5 0.9 1.1z"/>
	<path id="Layer" fill-rule="evenodd" class="s1" d="m89.1 35.1c-0.8-0.8-5.4-0.4-7.4-0.2-0.7 0.1-0.8-0.3-0.2-0.6 3.6-1.9 9.6-1.3 10.3-0.7 0.7 0.6-0.2 4.9-3.6 7-0.5 0.3-1 0.1-0.8-0.3 0.8-1.4 2.5-4.5 1.7-5.2z"/>
</svg>